<?xml version="1.0" standalone="no"?>
<!DOCTYPE svg PUBLIC "-//W3C//DTD SVG 20010904//EN"
 "http://www.w3.org/TR/2001/REC-SVG-20010904/DTD/svg10.dtd">
<svg version="1.0" xmlns="http://www.w3.org/2000/svg"
 width="320.000000pt" height="320.000000pt" viewBox="0 0 320.000000 320.000000"
 preserveAspectRatio="xMidYMid meet">
<metadata>
Created by potrace 1.14, written by Peter Selinger 2001-2017
</metadata>
<g transform="translate(0.000000,320.000000) scale(0.100000,-0.100000)"
fill="#000000" stroke="none">
<path d="M1380 3184 c-47 -8 -97 -16 -112 -18 -15 -3 -54 -12 -85 -21 -32 -10
-65 -18 -73 -20 -8 -2 -55 -20 -105 -40 -405 -164 -729 -488 -889 -888 -38
-94 -90 -288 -103 -383 -9 -72 -10 -349 0 -421 10 -77 36 -197 52 -243 8 -22
15 -42 15 -45 8 -61 119 -290 190 -395 59 -87 179 -227 242 -282 29 -26 67
-58 83 -73 17 -14 64 -48 105 -76 41 -27 80 -53 86 -58 24 -19 222 -109 294
-134 195 -66 336 -87 555 -82 176 4 200 7 319 35 406 95 757 338 978 675 134
205 216 418 251 655 14 93 16 388 2 455 -3 17 -13 66 -21 109 -9 43 -22 96
-30 118 -7 21 -14 40 -14 43 -6 45 -84 218 -141 317 -86 147 -260 348 -376
435 -21 15 -40 30 -43 33 -11 13 -149 100 -210 133 -129 70 -332 140 -470 162
-25 4 -54 9 -65 12 -52 12 -356 10 -435 -3z"/>
</g>
</svg>
